# xmcd CD database file
#
# Track frame offsets:
#	150
#	12670
#	38235
#	48158
#	56457
#	94244
#	105670
#	119626
#	127559
#	157659
#	165103
#	201659
#	221916
#	246443
#	259919
#	270058
#	291661
#	296532
#	331024
#
# Disc length: 4521 seconds
#
# Revision: 3
# Processed by: cddbd v1.5.2PL0 Copyright (c) Steve Scherf et al.
# Submitted via: CDex 1.70beta2
#
DISCID=1311a713
DTITLE=Perry Rhodan - 005 - Vorstoß nach Arkon - CD 04
DYEAR=2004
DGENRE=Hörbuch
TTITLE0=Kapitel 11-06
TTITLE1=Kapitel 11-07
TTITLE2=Kapitel 11-08
TTITLE3=Kapitel 11-09
TTITLE4=Kapitel 11-10
TTITLE5=Kapitel 11-11
TTITLE6=Kapitel 11-12
TTITLE7=Kapitel 11-13
TTITLE8=Kapitel 12-01
TTITLE9=Kapitel 12-02
TTITLE10=Kapitel 12-03
TTITLE11=Kapitel 12-04
TTITLE12=Kapitel 13-01
TTITLE13=Kapitel 13-02
TTITLE14=Kapitel 13-03
TTITLE15=Kapitel 13-04
TTITLE16=Kapitel 13-05
TTITLE17=Kapitel 13-06
TTITLE18=Kapitel 13-07
EXTD=YEAR: 2004
EXTT0=
EXTT1=
EXTT2=
EXTT3=
EXTT4=
EXTT5=
EXTT6=
EXTT7=
EXTT8=
EXTT9=
EXTT10=
EXTT11=
EXTT12=
EXTT13=
EXTT14=
EXTT15=
EXTT16=
EXTT17=
EXTT18=
PLAYORDER=
